<?xml version="1.0" encoding="utf-8"?>
<svg width="21px" height="20px" viewbox="0 0 21 20" version="1.1" xmlns:xlink="http://www.w3.org/1999/xlink" xmlns="http://www.w3.org/2000/svg">
  <g id="Group">
    <g id="Group" transform="translate(5 0)">
      <path d="M1.13151 5.61548C1.00145 5.61548 0.872317 5.5586 0.779027 5.44703L0.411839 5.00635C0.0717656 4.59815 -0.0674807 4.05201 0.0308649 3.50855C0.126453 2.97608 0.435736 2.53443 0.87967 2.29664C1.06717 2.19581 1.19539 2.00294 1.23169 1.76783C1.26938 1.52247 1.19998 1.28419 1.04189 1.11426L0.797409 0.851812C0.614505 0.655768 0.615883 0.339117 0.800166 0.144781C0.985369 -0.0495548 1.28316 -0.04809 1.46561 0.148199L1.71055 0.410894C2.07774 0.804937 2.24594 1.37232 2.16046 1.92847C2.07544 2.48292 1.7634 2.94239 1.30384 3.18921C1.12278 3.28638 0.995479 3.4712 0.955038 3.69654C0.912299 3.93311 0.971122 4.16895 1.1168 4.34327L1.48399 4.78394C1.65632 4.99073 1.63794 5.30689 1.44355 5.48975C1.35393 5.57398 1.24272 5.61548 1.13151 5.61548Z" transform="translate(0.13871238 -1.6719868E-06)" id="Path" fill="#000000" stroke="none" />
      <path d="M1.13178 5.61549C1.00219 5.61549 0.872592 5.5586 0.779761 5.44727L0.412114 5.0066C0.0715806 4.59766 -0.0672062 4.05152 0.0306798 3.50782C0.126728 2.97584 0.436011 2.53443 0.879485 2.29664C1.06699 2.19581 1.1952 2.00294 1.23151 1.76783C1.26919 1.52247 1.1998 1.28419 1.04171 1.11427L0.797224 0.851571C0.61432 0.655282 0.616158 0.338631 0.8009 0.144539C0.986103 -0.0497965 1.2839 -0.0478433 1.46634 0.148446L1.71083 0.411141C2.07755 0.80494 2.24575 1.37232 2.16028 1.92848C2.07526 2.48292 1.76322 2.94239 1.30366 3.18922C1.12259 3.28614 0.995753 3.47096 0.954853 3.69605C0.912114 3.93311 0.971397 4.16895 1.11662 4.34351L1.4838 4.7837C1.65614 4.99049 1.63822 5.30641 1.44382 5.48975C1.35421 5.57398 1.243 5.61549 1.13178 5.61549Z" transform="translate(2.89671 -4.1897133E-06)" id="Path" fill="#000000" stroke="none" />
      <path d="M1.13173 5.61549C1.00168 5.61549 0.872544 5.5586 0.779253 5.44703L0.412066 5.00636C0.0719921 4.59791 -0.0672542 4.05177 0.0306318 3.50807C0.12668 2.97584 0.435963 2.53443 0.879437 2.29664C1.06694 2.19581 1.19515 2.00294 1.23146 1.76783C1.26914 1.52247 1.19975 1.28419 1.04166 1.11427L0.797176 0.851571C0.614272 0.655282 0.61611 0.338631 0.800852 0.144539C0.986055 -0.0497965 1.28385 -0.0478433 1.46629 0.148446L1.71078 0.411141C2.07751 0.80494 2.24571 1.37232 2.16023 1.92848C2.07521 2.48292 1.76317 2.94239 1.30361 3.18922C1.12254 3.28614 0.995705 3.47096 0.955264 3.69605C0.912525 3.93287 0.971349 4.16871 1.11703 4.34327L1.48422 4.78394C1.65655 4.99073 1.63817 5.30689 1.44378 5.48975C1.35416 5.57398 1.24295 5.61549 1.13173 5.61549Z" transform="translate(5.6545706 -4.1897133E-06)" id="Path" fill="#000000" stroke="none" />
    </g>
    <path d="M10.0002 12C4.48603 12 0 6.83595 0 0.48852C0 0.218737 0.21781 0 0.486981 0L19.513 0C19.7822 0 20 0.218737 20 0.48852C20 0.94627 19.9781 1.38637 19.9353 1.79689C19.709 4.1331 18.8705 6.30902 17.5114 8.08611C15.6224 10.5728 12.8841 12 10.0002 12ZM0.983474 0.977041C1.20319 6.55972 5.16371 11.023 10.0002 11.023C12.5778 11.023 15.0336 9.73606 16.7381 7.49264C17.9869 5.85938 18.7573 3.8564 18.9666 1.69885C18.9908 1.46723 19.0075 1.22583 19.017 0.977041L0.983474 0.977041L0.983474 0.977041Z" transform="translate(0 6)" id="Shape" fill="#000000" stroke="none" />
    <path d="M2.00845 8C1.31481 8 0.646494 7.67587 0.126139 7.08705C-0.0337416 6.90599 -0.042679 6.6376 0.105285 6.44618C1.40816 4.75867 2.21252 2.68732 2.43099 0.456127C2.44788 0.284193 2.55165 0.132734 2.70656 0.0545372C2.86148 -0.0229193 3.04619 -0.0179858 3.19564 0.0700778C4.29196 0.713658 5 2.20433 5 3.86792C5 6.18495 3.6862 8 2.00845 8ZM1.18373 6.69459C1.40021 6.85813 1.67727 6.98961 2.00845 6.98961C3.07896 6.98961 3.98312 5.56012 3.98312 3.86792C3.98312 2.9668 3.72841 2.12218 3.30984 1.53805C2.98313 3.42686 2.2582 5.1869 1.18373 6.69459Z" transform="translate(16 7)" id="Shape" fill="#000000" stroke="none" />
    <path d="M10.585 3L1.41496 3C0.634706 3 0 2.33845 0 1.5252L0 1.4748C0 0.661546 0.634706 0 1.41496 0L10.585 0C11.3653 0 12 0.661546 12 1.4748L12 1.5252C12 2.33845 11.3653 3 10.585 3ZM1.41496 0.983197C1.15472 0.983197 0.943308 1.20379 0.943308 1.4748L0.943308 1.5252C0.943308 1.79621 1.15472 2.0168 1.41496 2.0168L10.585 2.0168C10.8453 2.0168 11.0567 1.79621 11.0567 1.5252L11.0567 1.4748C11.0567 1.20379 10.8453 0.983197 10.585 0.983197L1.41496 0.983197Z" transform="translate(4 17)" id="Shape" fill="#000000" stroke="none" />
  </g>
</svg>