<?xml version="1.0" encoding="utf-8"?>
<svg width="10px" height="11px" viewbox="0 0 10 11" version="1.1" xmlns:xlink="http://www.w3.org/1999/xlink" xmlns="http://www.w3.org/2000/svg">
  <path d="M9.49401 0.546116L7.61112 0.546116L7.61112 0.364078C7.61112 0.169036 7.452 0 7.23984 0C7.04095 0 6.86857 0.156033 6.86857 0.364078L6.86857 0.546116L3.22213 0.546116L3.22213 0.364078C3.22213 0.169036 3.06301 0 2.85085 0C2.65196 0 2.47958 0.156033 2.47958 0.364078L2.47958 0.546116L0.530391 0.546116C0.225416 0.546116 0 0.754161 0 1.06623L0 3.12067L0 10.2072C0 10.4932 0.212157 10.7143 0.530391 10.7143L9.46749 10.7143C9.77246 10.7143 9.99788 10.4932 9.99788 10.2072L9.99788 3.12067L9.99788 1.06623C10.0244 0.780166 9.79898 0.546116 9.49401 0.546116ZM0.714287 1.42847L2.46844 1.42847L2.46844 1.60238C2.46844 1.78872 2.62791 1.95021 2.84053 1.95021C3.03987 1.95021 3.21263 1.80114 3.21263 1.60238L3.21263 1.42847L6.86711 1.42847L6.86711 1.60238C6.86711 1.78872 7.02658 1.95021 7.2392 1.95021C7.43854 1.95021 7.6113 1.80114 7.6113 1.60238L7.6113 1.42847L9.28572 1.42847L9.28572 2.85704L0.740865 2.85704L0.740865 1.42847L0.714287 1.42847ZM9.28572 10.0001L0.714287 10.0001L0.714287 3.57153L9.28572 3.57153L9.28572 10.0001ZM2.14286 5L3.57143 5L3.57143 6.42857L2.14286 6.42857L2.14286 5ZM4.28571 5L5.71428 5L5.71428 6.42857L4.28571 6.42857L4.28571 5ZM6.42857 5L7.85714 5L7.85714 6.42857L6.42857 6.42857L6.42857 5ZM2.14286 7.14282L3.57143 7.14282L3.57143 8.57139L2.14286 8.57139L2.14286 7.14282ZM4.28571 7.14282L5.71428 7.14282L5.71428 8.57139L4.28571 8.57139L4.28571 7.14282ZM6.42857 7.14282L7.85714 7.14282L7.85714 8.57139L6.42857 8.57139L6.42857 7.14282Z" id="Shape-Copy" fill="#000000" stroke="none" />
</svg>