<?xml version="1.0" encoding="utf-8"?>
<svg width="19px" height="23px" viewbox="0 0 19 23" version="1.1" xmlns:xlink="http://www.w3.org/1999/xlink" xmlns="http://www.w3.org/2000/svg">
  <path d="M7 6C5.34315 6 4 4.65685 4 3C4 1.34315 5.34315 0 7 0C8.65685 0 10 1.34315 10 3C10 4.65685 8.65685 6 7 6ZM7 5C8.10457 5 9 4.10457 9 3C9 1.89543 8.10457 1 7 1C5.89543 1 5 1.89543 5 3C5 4.10457 5.89543 5 7 5ZM8.46484 12.7573L9.86255 17.9681L11.9674 22.502C12.0491 22.678 11.9719 22.8864 11.7949 22.9676C11.6179 23.0488 11.4082 22.972 11.3265 22.7961L9.20891 18.2347L9.18834 18.1781L7.9779 13.6655L4.94119 18.1939L4.94119 22.649C4.94119 22.8428 4.78317 22.9999 4.58825 22.9999C4.39333 22.9999 4.23531 22.8428 4.23531 22.649L4.23531 18.0877C4.23531 18.0184 4.25594 17.9507 4.29459 17.893L7.75112 12.7385L7.10304 7.58426L2.49578 7.91143C2.35334 7.92154 2.21882 7.84533 2.15496 7.71836L0.0373378 3.50787C-0.0498336 3.33454 0.0208327 3.12378 0.195176 3.03712C0.248196 3.01076 0.304698 2.99892 0.360114 3.00008L2.82357 3.00008C3.01849 3.00008 3.1765 3.15717 3.1765 3.35095C3.1765 3.54473 3.01849 3.70183 2.82357 3.70183L0.924077 3.70183L2.6808 7.19475L7.3866 6.86059C7.57377 6.8473 7.73868 6.98194 7.76195 7.16705L8.46484 12.7573ZM12.3333 3L18 3C18.5523 3 19 3.41328 19 3.92308L19 6.07692C19 6.58672 18.5523 7 18 7L16.4655 7C15.9132 7 15.4655 6.58672 15.4655 6.07692C15.4655 6.02155 15.4709 5.96628 15.4816 5.9118L15.9339 3.61538L12.3333 3.61538C12.1492 3.61538 12 3.47763 12 3.30769C12 3.13776 12.1492 3 12.3333 3ZM16.4356 3L16.0049 6.47605C16.0016 6.50228 16 6.52889 16 6.55556C16 6.80102 16.1356 7 16.3029 7L17.6971 7C17.8644 7 18 6.80102 18 6.55556L18 3.44444C18 3.19898 17.8644 3 17.6971 3L16.4356 3Z" id="Shape" fill="#000000" stroke="none" />
</svg>