<?xml version="1.0" encoding="utf-8"?>
<svg width="20px" height="19px" viewbox="0 0 20 19" version="1.1" xmlns:xlink="http://www.w3.org/1999/xlink" xmlns="http://www.w3.org/2000/svg">
  <g id="Group">
    <path d="M0.5 1C0.776142 1 1 0.776142 1 0.5C1 0.223858 0.776142 0 0.5 0C0.223858 0 0 0.223858 0 0.5C0 0.776142 0.223858 1 0.5 1Z" transform="translate(1 17)" id="Oval" fill="#000000" stroke="none" />
    <path d="M0.310645 2.99992C0.487302 3.00388 0.634443 2.86606 0.641066 2.69044L0.67992 1.41293C0.683991 1.27557 0.775944 1.1562 0.908229 1.11655L2 0.79078L2 0L0.482117 0.514837C0.228781 0.600849 0.0556553 0.83413 0.0476566 1.10026L0.000132432 2.6716C-0.00490675 2.84777 0.134487 2.9947 0.311608 2.99992L0.310645 2.99992Z" transform="translate(4 4)" id="Path" fill="#000000" stroke="none" />
    <path d="M0.53883 4.74629L0.733338 4.14095C0.772961 4.01717 0.872339 3.92408 0.995066 3.89577L4.06321 3.1888L5 1.56899L3.8233 0L3.57301 2.07715C3.55547 2.22296 3.45661 2.34428 3.32094 2.3865L0 3.42137L0 5L0.199871 5C0.353704 4.99988 0.490219 4.8977 0.53883 4.74629Z" transform="translate(3 9)" id="Path" fill="#000000" stroke="none" />
    <path d="M1 3.55271e-15L0 3.55271e-15C0.103619 0.322045 0.103619 0.677955 0 1L1 1C0.896381 0.677955 0.896381 0.322045 1 0L1 3.55271e-15Z" transform="translate(5 17)" id="Path" fill="#000000" stroke="none" />
    <path d="M0.5 1C0.776142 1 1 0.776142 1 0.5C1 0.223858 0.776142 0 0.5 0C0.223858 0 0 0.223858 0 0.5C0 0.776142 0.223858 1 0.5 1Z" transform="translate(4 17)" id="Oval" fill="#000000" stroke="none" />
    <path d="M1 3.55271e-15L0 3.55271e-15C0.103619 0.322045 0.103619 0.677955 7.50151e-16 1L1 1C0.896381 0.677955 0.896381 0.322045 1 0L1 3.55271e-15Z" transform="translate(3 17)" id="Path" fill="#000000" stroke="none" />
    <path d="M6.90783e-14 0.111543L5.30742 0.190569L5.31796 0.888457L0.0105421 0.809431L6.90783e-14 0.111543Z" transform="matrix(0.84640706 -0.5325365 0.5325365 0.84640706 14.361328 6.098633)" id="Rectangle" fill="#000000" stroke="none" />
    <path d="M1.5 3C2.32843 3 3 2.32843 3 1.5C3 0.671573 2.32843 0 1.5 0C0.671573 0 0 0.671573 0 1.5C0 2.32843 0.671573 3 1.5 3Z" transform="translate(6 0)" id="Oval" fill="#000000" stroke="none" />
    <path d="M2 7.76299L2 0L0.951076 0.664252L0 8L2 7.76299L2 7.76299Z" transform="translate(17 6)" id="Path" fill="#000000" stroke="none" />
    <path d="M4 12L4 11.8149C3.99922 11.653 3.90225 11.5106 3.761 11.464L3.11067 11.2533C2.95071 11.2014 2.85032 11.0278 2.87567 10.8468L3.321 7.66902L2.035 4.84646C2.01193 4.79567 1.99995 4.73968 2 4.68293L2 3.58537L1.66667 3.58537C1.52771 3.58552 1.40325 3.49104 1.35433 3.34829L0.462667 0.738293C0.383169 0.500893 0.377543 0.24128 0.446667 0C0.293671 0.0366941 0.144132 0.0889944 0 0.15622L0 4.55744L2.26333 7.75098C2.30877 7.81523 2.3334 7.89427 2.33333 7.97561L2.33333 12L4 12Z" transform="translate(7 3)" id="Path" fill="#000000" stroke="none" />
    <path d="M0.391188 1.36984e-07L0.342248 1.36984e-07C0.212519 -0.000128209 0.0939648 0.0899417 0.0363724 0.232384C-0.00649778 0.337484 -0.0117069 0.459715 0.0219962 0.569715L0.691558 2.75675C0.736301 2.90301 0.850382 2.99994 0.977857 3L2.69412 3C2.86305 3 3 2.83219 3 2.62519C3 2.41818 2.86305 2.25037 2.69412 2.25037L1.47062 2.25037C1.33891 2.25041 1.22197 2.14713 1.18035 1.994L0.716639 0.288981C0.670589 0.11653 0.539263 -7.90466e-05 0.391188 1.36984e-07L0.391188 1.36984e-07Z" transform="translate(9 3)" id="Path" fill="#000000" stroke="none" />
    <path d="M0.5 1C0.776142 1 1 0.776142 1 0.5C1 0.223858 0.776142 0 0.5 0C0.223858 0 0 0.223858 0 0.5C0 0.776142 0.223858 1 0.5 1Z" transform="translate(16 17)" id="Oval" fill="#000000" stroke="none" />
    <path d="M16.2 0L1.8 0C0.805887 0 3.19744e-16 0.671573 0 1.5C-1.59872e-16 2.32843 0.805887 3 1.8 3L16.2 3C17.1941 3 18 2.32843 18 1.5C18 0.671573 17.1941 0 16.2 0ZM16.2 2.4L1.8 2.4C1.20353 2.4 0.72 1.99706 0.72 1.5C0.72 1.00294 1.20353 0.6 1.8 0.6L16.2 0.6C16.7965 0.6 17.28 1.00294 17.28 1.5C17.28 1.99706 16.7965 2.4 16.2 2.4Z" transform="translate(0 16)" id="Shape" fill="#000000" stroke="none" />
    <path d="M0.5 1C0.776142 1 1 0.776142 1 0.5C1 0.223858 0.776142 0 0.5 0C0.223858 0 0 0.223858 0 0.5C0 0.776142 0.223858 1 0.5 1Z" transform="translate(7 17)" id="Oval" fill="#000000" stroke="none" />
    <path d="M0 0.555906L0 1.22047L1.6 1.22047C2.73833 1.21955 3.76384 1.76189 4.19334 2.59197C4.62284 3.42205 4.37065 4.37428 3.5556 5L6 5L6 0L0 0.555906Z" transform="translate(14 14)" id="Path" fill="#000000" stroke="none" />
    <path d="M1 3.55271e-15L0 3.55271e-15C0.103619 0.322045 0.103619 0.677955 0 1L1 1C0.896381 0.677955 0.896381 0.322045 1 0L1 3.55271e-15Z" transform="translate(14 17)" id="Path" fill="#000000" stroke="none" />
    <path d="M1 3.55271e-15L1.5003e-15 3.55271e-15C0.103619 0.322045 0.103619 0.677955 0 1L1 1C0.896381 0.677955 0.896381 0.322045 1 0L1 3.55271e-15Z" transform="translate(8 17)" id="Path" fill="#000000" stroke="none" />
    <path d="M0.5 1C0.776142 1 1 0.776142 1 0.5C1 0.223858 0.776142 0 0.5 0C0.223858 0 0 0.223858 0 0.5C0 0.776142 0.223858 1 0.5 1Z" transform="translate(10 17)" id="Oval" fill="#000000" stroke="none" />
    <path d="M1 3.55271e-15L0 3.55271e-15C0.103619 0.322045 0.103619 0.677955 0 1L1 1C0.896381 0.677955 0.896381 0.322045 1 0L1 3.55271e-15Z" transform="translate(12 17)" id="Path" fill="#000000" stroke="none" />
    <path d="M0.5 1C0.776142 1 1 0.776142 1 0.5C1 0.223858 0.776142 0 0.5 0C0.223858 0 0 0.223858 0 0.5C0 0.776142 0.223858 1 0.5 1Z" transform="translate(13 17)" id="Oval" fill="#000000" stroke="none" />
  </g>
</svg>