<?xml version="1.0" encoding="utf-8"?>
<svg width="22px" height="21px" viewbox="0 0 22 21" version="1.1" xmlns:xlink="http://www.w3.org/1999/xlink" xmlns="http://www.w3.org/2000/svg">
  <path d="M9 0C7.90135 0 7 0.901355 7 2C7 3.09865 7.90135 4 9 4C10.0986 4 11 3.09865 11 2C11 0.901355 10.0986 0 9 0ZM9 1C9.55821 1 10 1.44179 10 2C10 2.55821 9.55821 3 9 3C8.44179 3 8 2.55821 8 2C8 1.44179 8.44179 1 9 1ZM0.956805 2.28891C0.385735 2.65387 0.087789 3.27412 0.0174429 3.93126C-0.052903 4.5884 0.0903905 5.30279 0.43165 5.95706C0.768804 6.60346 1.27447 7.08391 1.85179 7.33894L4.55153 8.96682L5.77935 10.6815C5.73514 10.9673 5.78487 11.2501 5.93468 11.4846C6.19537 11.8926 6.76855 12.0809 7.28825 11.9115C7.33623 11.8945 7.38138 11.87 7.42139 11.8391C9.07729 10.6243 9.7807 10.0252 10.6759 8.93788L11.2158 9.57455C10.3117 10.4311 9.28881 11.0771 8.38294 12.6277C8.34054 12.6974 8.31732 12.7782 8.31637 12.8593C8.31637 15.2979 9.28983 17.6419 9.7513 19.8989C9.75837 19.9388 9.77086 19.9779 9.78828 20.0147C10.1097 20.6434 10.7622 20.9624 11.3933 20.9624C12.185 20.8643 12.571 20.2639 12.5768 19.5733C12.2864 17.7968 11.9765 16.0069 11.6744 14.2267L13.6641 12.8086C15.6562 15.3865 17.5782 18.0303 19.5813 20.5935C19.9296 20.9341 20.3914 21.032 20.7648 20.9914C21.1239 20.9524 21.4186 20.8244 21.645 20.6152C21.8777 20.3652 21.9888 20.0508 22 19.7687C21.9948 19.473 21.9068 19.1813 21.7633 18.9005C19.1506 14.338 16.5492 9.76054 13.9451 5.19015C14.5428 4.89281 14.979 4.8075 15.3949 4.93692C16.2718 5.34116 16.8969 5.8308 17.5103 6.27541C17.7314 6.46351 17.9963 6.55034 18.2573 6.55034C18.54 6.55034 18.841 6.46414 19.0709 6.23924C19.3009 6.01434 19.3816 5.72716 19.3816 5.45062C19.354 5.17948 19.2238 4.8466 19.0636 4.66923C17.9354 3.22457 16.5255 2.51865 15.1286 2.33232C13.7974 2.15957 12.3276 2.46567 11.201 2.9473C11.036 3.0191 10.9213 3.19022 10.92 3.36693C10.92 3.36208 10.8331 3.59297 10.6315 3.76485C10.4299 3.93674 10.1562 4.05483 9.95842 4.06149C9.83983 4.06615 9.72372 4.11632 9.64037 4.19895C8.62653 5.19065 8.56435 6.28189 8.56047 7.38959C8.1545 8.14505 7.3529 8.97106 6.31192 9.80608C6.04283 9.40279 5.69747 9.01019 5.46871 8.59783L4.76604 5.37103C4.80258 4.77517 4.6693 4.13533 4.36663 3.55504C4.01606 2.88293 3.47393 2.39466 2.85773 2.15145C2.20082 1.93001 1.52872 1.93163 0.956805 2.28891L0.956805 2.28891ZM2.63063 3.09775C3.03342 3.26426 3.43517 3.63041 3.69937 4.16092C4.2375 5.24149 4.00207 6.47753 3.39733 6.88231C2.50046 7.26643 1.7475 6.65329 1.34506 5.86674C1.07112 5.31667 0.96121 4.70589 1.01204 4.20852C1.06288 3.71115 1.25752 3.35183 1.55416 3.15328C1.91565 2.92541 2.28074 2.99099 2.63063 3.09775ZM15.1144 3.04454C16.2747 3.20433 17.4103 3.76926 18.3811 5.07636C18.4761 5.20865 18.4947 5.30825 18.4243 5.39679C18.2932 5.47067 18.2184 5.4083 18.107 5.3531C17.1914 4.65957 16.5455 4.09958 15.7778 3.8529C15.0101 3.60621 14.1764 3.7804 13.1961 4.39909C12.9993 4.52419 12.9255 4.81227 13.0375 5.0181L20.8762 19.219C20.9648 19.438 21.0672 19.7448 20.9411 19.889C20.6801 20.0602 20.4235 20.0238 20.2344 19.8453L14.2779 11.7399C14.1355 11.5444 13.8309 11.496 13.636 11.6379L11.0977 13.5023C10.9569 13.6033 10.8809 13.7891 10.9102 13.961L11.826 19.4885C11.8416 19.7414 11.7104 19.848 11.5952 19.94C11.291 19.94 11.0165 19.7955 10.8669 19.503C10.3975 17.2031 9.56642 14.9769 9.53281 12.8468C10.3855 11.4046 11.3632 10.8965 12.3957 9.7736C12.5481 9.60841 12.5546 9.32681 12.4101 9.15458L11.2563 7.75633C11.0777 7.54378 10.7009 7.55519 10.5352 7.77818C9.5037 9.16707 9.10904 9.50089 7.355 10.8295C7.24704 10.9003 7.08883 10.8897 7.03384 10.8111C6.96988 10.7263 6.99346 10.5865 7.13144 10.429C8.26111 9.506 9.20479 8.57908 9.70588 7.56701C9.73631 7.5013 9.75126 7.42834 9.74915 7.35582C9.74915 6.22817 9.74823 5.52362 10.4847 4.73411C10.8568 4.65994 11.2015 4.49308 11.4654 4.26075C11.6917 4.06155 11.8477 3.8164 11.9486 3.53977C13.0722 3.13226 14.0092 2.89631 15.1144 3.04457L15.1144 3.04454ZM3.74737 7L4 8L3 7.47788C3.29243 7.37124 3.54024 7.16302 3.74737 7L3.74737 7Z" id="Shape" fill="#FFFFFF" stroke="none" />
</svg>