<?xml version="1.0" encoding="utf-8"?>
<svg width="26px" height="20px" viewbox="0 0 26 20" version="1.1" xmlns:xlink="http://www.w3.org/1999/xlink" xmlns="http://www.w3.org/2000/svg">
  <path d="M3 7C4.65419 7 6 5.42989 6 3.5C6 1.56979 4.65419 0 3 0C1.34554 0 0 1.56979 0 3.5C0 5.42989 1.34554 7 3 7ZM3.00021 0.766602C4.29152 0.766602 5.34264 1.99291 5.34264 3.50008C5.34264 5.00724 4.29152 6.23323 3.00021 6.23323C1.70835 6.23323 0.657227 5.00724 0.657227 3.50008C0.657227 1.99291 1.70862 0.766602 3.00021 0.766602Z" transform="translate(10 0)" id="Shape" fill="#000000" stroke="none" />
  <path d="M25.951 1.19686C25.8464 0.78586 25.5875 0.440225 25.2227 0.223531C24.8586 0.00653871 24.4312 -0.0546489 24.0198 0.0495193C20.982 0.821379 17.8527 1.23925 14.7184 1.29088L11.282 1.29088C8.14828 1.23925 5.01871 0.821379 1.98055 0.0495193C1.13252 -0.166876 0.265369 0.348294 0.0491046 1.19686C-0.166563 2.04513 0.34841 2.91071 1.19704 3.12681C1.19734 3.12681 1.19734 3.12681 1.19764 3.12681C3.96517 3.83032 6.81126 4.25923 9.66303 4.40906L9.66303 9.66135C8.77587 9.90938 7.89378 10.1938 7.04067 10.5195C6.59171 10.6905 6.23565 11.0266 6.0388 11.4653C5.84255 11.9044 5.82851 12.3927 5.99967 12.8419C6.26463 13.5347 6.9403 14 7.6823 14L12.2905 14L18.3175 14C19.311 14 20.119 13.1926 20.119 12.2008C20.119 11.4597 19.6527 10.7839 18.9597 10.5195C18.1051 10.1932 17.2236 9.90908 16.3368 9.66135L16.3368 4.40906C19.1891 4.25923 22.0349 3.83062 24.8022 3.12681C24.8028 3.12681 24.8028 3.12681 24.8028 3.12681C25.6517 2.91071 26.1664 2.04513 25.951 1.19686ZM24.6265 2.43284C24.6259 2.43284 24.6259 2.43284 24.6259 2.43314C21.7951 3.15187 18.8806 3.58317 15.9628 3.713C15.9407 3.7142 15.9225 3.72345 15.9016 3.72852C15.8783 3.7339 15.8544 3.73569 15.8328 3.74583C15.8119 3.75509 15.7949 3.77031 15.7764 3.78344C15.7579 3.79687 15.7373 3.80762 15.7208 3.82493C15.7056 3.84075 15.6963 3.86075 15.6841 3.87955C15.6712 3.89925 15.656 3.91746 15.6474 3.93955C15.6387 3.96133 15.6375 3.98491 15.6333 4.00849C15.6291 4.02939 15.6205 4.04909 15.6205 4.07117L15.6205 9.92877C15.6205 9.93713 15.6252 9.94429 15.6258 9.95205C15.627 9.97772 15.6333 10.001 15.6405 10.0249C15.6465 10.0461 15.6515 10.067 15.6614 10.0864C15.6712 10.1073 15.6853 10.1249 15.6999 10.1434C15.7134 10.1616 15.7268 10.1789 15.7435 10.1941C15.7606 10.2087 15.7797 10.2195 15.7991 10.2314C15.82 10.2437 15.8406 10.2553 15.8639 10.2631C15.8714 10.266 15.8774 10.2723 15.886 10.2744C16.8386 10.5311 17.7873 10.8385 18.7052 11.1886C19.1222 11.3477 19.403 11.7543 19.403 12.2005C19.403 12.7977 18.9164 13.2833 18.3184 13.2833L15.1384 13.2833C15.3684 12.9813 15.5105 12.6088 15.5105 12.2005C15.5105 11.7925 15.3681 11.4197 15.1384 11.1173L16.2065 11.1173C16.4043 11.1173 16.5647 10.957 16.5647 10.7591C16.5647 10.5612 16.4043 10.401 16.2065 10.401L12.2908 10.401L9.79416 10.401C9.59612 10.401 9.43601 10.5612 9.43601 10.7591C9.43601 10.957 9.59612 11.1173 9.79416 11.1173L12.2908 11.1173L13.7099 11.1173C14.3073 11.1173 14.7933 11.6032 14.7933 12.2005C14.7933 12.7977 14.3073 13.2833 13.7099 13.2833L12.2908 13.2833L7.68289 13.2833C7.23662 13.2833 6.82948 13.0034 6.66997 12.5864C6.56662 12.3163 6.57528 12.022 6.69387 11.7578C6.81216 11.4937 7.02603 11.2916 7.29666 11.1889C8.2131 10.8391 9.1615 10.5314 10.1156 10.2747C10.1239 10.2726 10.1299 10.2663 10.1374 10.2634C10.161 10.2556 10.181 10.244 10.2019 10.2317C10.2213 10.2198 10.2413 10.209 10.2578 10.1944C10.2751 10.1792 10.2879 10.1619 10.3014 10.1437C10.3157 10.1252 10.3297 10.1076 10.3399 10.0867C10.3498 10.0673 10.3551 10.0464 10.3608 10.0252C10.3677 10.001 10.3743 9.97802 10.3754 9.95235C10.3763 9.94459 10.3805 9.93743 10.3805 9.92907L10.3805 4.07088C10.3805 4.04879 10.3719 4.02909 10.368 4.0082C10.3638 3.98521 10.3626 3.96104 10.3539 3.93925C10.3453 3.91716 10.33 3.89895 10.3172 3.87925C10.305 3.86075 10.296 3.84045 10.2805 3.82463C10.2643 3.80732 10.2437 3.79658 10.2246 3.78314C10.2061 3.77001 10.1894 3.75479 10.1684 3.74554C10.1472 3.73569 10.123 3.7336 10.1 3.72822C10.0791 3.72315 10.0603 3.7139 10.0385 3.7127C7.12132 3.58257 4.20682 3.15157 1.37537 2.43284C1.37537 2.43254 1.37537 2.43254 1.37507 2.43254C0.909084 2.31404 0.626208 1.83857 0.744795 1.37325C0.863681 0.907923 1.33833 0.625863 1.80551 0.743462C4.89714 1.52905 8.08197 1.95468 11.271 2.00721C11.2731 2.00721 11.2752 2.00721 11.2769 2.00721L14.7258 2.00721C14.7276 2.00721 14.7294 2.00721 14.7318 2.00721C17.9208 1.95438 21.1056 1.52875 24.1973 0.743462C24.4237 0.686752 24.6576 0.720181 24.8583 0.838975C25.0585 0.957768 25.2003 1.1473 25.2574 1.37295C25.3751 1.83887 25.0919 2.31404 24.6265 2.43284Z" transform="translate(0 6)" id="Shape" fill="#000000" stroke="none" />
</svg>