<?xml version="1.0" encoding="utf-8"?>
<svg width="12px" height="13px" viewbox="0 0 12 13" version="1.1" xmlns:xlink="http://www.w3.org/1999/xlink" xmlns="http://www.w3.org/2000/svg">
  <g id="Group-13" transform="translate(0.25 0.25)">
    <path d="M6.28702 1.76596L0.737065 8.41877C0.568142 8.62126 0.295775 8.62307 0.126092 8.41967C-0.0424164 8.21767 -0.041894 7.88955 0.126843 7.68728L5.67679 1.03447L4.12827 1.03447C3.89067 1.03447 3.69806 0.80489 3.69806 0.517237C3.69806 0.231575 3.89105 0 4.12827 0L6.71979 0C6.83838 0 6.94576 0.0571916 7.02358 0.15025C7.10188 0.245056 7.15 0.373774 7.15 0.5157L7.15 3.62219C7.15 3.90701 6.95848 4.13789 6.71851 4.13789C6.4802 4.13789 6.28702 3.90655 6.28702 3.62219L6.28702 1.76596Z" transform="translate(3.8500977 0)" id="Shape" fill="#000000" stroke="none" />
    <path d="M2.73017 10.9183C1.55404 10.9172 0.600918 10.1061 0.599642 9.1053L0.599642 2.32327C0.600918 1.32243 1.55404 0.511355 2.73017 0.51027L8.26983 0.51027C9.44596 0.511355 10.3991 1.32243 10.4004 2.32327L10.4004 5.1213C10.4004 5.2622 10.5346 5.37643 10.7002 5.37643C10.8658 5.37643 11 5.2622 11 5.1213L11 2.32327C10.9983 1.04077 9.77695 0.00145242 8.26983 0L2.73017 0C1.22305 0.00145242 0.0017068 1.04077 0 2.32327L0 9.1053C0.0017068 10.3878 1.22305 11.4271 2.73017 11.4286L3.85 11.4286C4.01559 11.4286 4.14982 11.3143 4.14982 11.1734C4.14982 11.0325 4.01559 10.9183 3.85 10.9183L2.73017 10.9183Z" transform="matrix(1 2.1456883E-07 2.1456883E-07 -1 1.8168214E-07 11.999999)" id="Path" fill="#000000" stroke="#000000" stroke-width="0.5" />
  </g>
</svg>