<?xml version="1.0" encoding="utf-8"?>
<svg width="26px" height="19px" viewbox="0 0 26 19" version="1.1" xmlns:xlink="http://www.w3.org/1999/xlink" xmlns="http://www.w3.org/2000/svg">
  <g id="Group-6">
    <path d="M25.6197 19L0.380431 19C0.240023 19 0.110965 18.848 0.0447198 18.6195C-0.0212611 18.3901 -0.0138712 18.1085 0.0645141 17.8931L3.21555 9.19121L3.21555 3.58319C3.21529 3.19709 3.30009 2.88393 3.49656 2.88393L5.49946 2.88393L6.4058 0.380974C6.4768 0.187077 6.59504 0 6.72198 0L19.2781 0C19.4048 0 19.5236 0.184641 19.5941 0.379026L20.5031 2.88393L22.5384 2.88393C22.7349 2.88393 22.9682 3.19709 22.9682 3.58319L22.9682 9.4793L22.9679 9.4793C22.9679 9.53432 22.9632 9.58786 22.9545 9.63923L25.9356 17.8542C26.0137 18.07 26.0214 18.373 25.9551 18.602C25.8894 18.8309 25.7601 19 25.6197 19ZM19.5911 2.88393L6.40909 2.88393L6.92494 1.46154L19.0752 1.46154L19.5911 2.88393ZM4.73322 5L4.97121 4.34276L4.00539 4.34276L4.00539 5L4 5L4 9L22 9L22 7.00895L22.1778 7.49899L22.1778 4.34276L21.0325 4.34276L21.271 5L20.3586 5L20.1202 4.34276L5.88001 4.34276L5.64165 5L4.73322 5ZM22.2369 10.1786L3.76355 10.1786L1.09434 17.5385L24.9063 17.5385L22.2369 10.1786Z" id="Combined-Shape" fill="#000000" fill-rule="evenodd" stroke="none" />
    <path d="M1 0L1 9L0 9L0 0L1 0Z" transform="translate(13 10)" id="Line-2" fill="#010101" stroke="none" />
    <path d="M1 0L1 3L0 3L0 0L1 0Z" transform="translate(13 1)" id="Line-2-Copy" fill="#010101" stroke="none" />
  </g>
</svg>