<?xml version="1.0" encoding="utf-8"?>
<svg width="23px" height="20px" viewbox="0 0 23 20" version="1.1" xmlns:xlink="http://www.w3.org/1999/xlink" xmlns="http://www.w3.org/2000/svg">
  <path d="M4.50018 11C6.98368 11 9 13.0163 9 15.5C9 17.9837 6.98368 20 4.50018 20C2.01632 20 0 17.9837 0 15.5C0 13.0163 2.01632 11 4.50018 11ZM18.5 11C20.9838 11 23 13.0163 23 15.5C23 17.9837 20.9838 20 18.5 20C16.0166 20 14 17.9837 14 15.5C14 13.0163 16.0166 11 18.5 11ZM4.50019 12C6.43168 12 8 13.5685 8 15.5C8 17.4315 6.43168 19 4.50019 19C2.56832 19 1 17.4315 1 15.5C1 13.5685 2.56832 12 4.50019 12ZM18.5 12C20.432 12 22 13.5685 22 15.5C22 17.4315 20.432 19 18.5 19C16.5684 19 15 17.4315 15 15.5C15 13.5685 16.5684 12 18.5 12ZM6.64438 10.3031C6.01818 9.93134 5.8126 9.13924 6.18706 8.52384L9.15391 3.64386C9.53231 3.02196 10.3601 2.81466 11.0017 3.18107C11.5747 3.50847 11.8067 4.18392 11.5798 4.76757L14.3513 8.66497L17.274 8.66497C17.6749 8.66497 18 8.98051 18 9.36911C18 9.75732 17.6749 10.0729 17.274 10.0729L13.9915 10.0729C13.853 10.0729 13.7235 10.0354 13.6135 9.96997C13.5144 9.91872 13.426 9.84452 13.3582 9.74852L10.7796 6.12229L8.78537 9.40162L13.1964 11.7825C13.4836 11.9374 13.6529 12.2189 13.6715 12.5153C13.6849 12.6618 13.6616 12.8133 13.5961 12.9571L11.5455 17.4634C11.3387 17.9178 10.7906 18.1235 10.3223 17.9235C9.85389 17.7231 9.64121 17.1918 9.84797 16.7378L11.5664 12.9609L6.68975 10.3291C6.67437 10.3207 6.65937 10.3123 6.64438 10.3031L6.64438 10.3031ZM11.5002 3.28104e-16C12.328 3.28104e-16 13 0.671962 13 1.49982C13 2.32804 12.328 3 11.5002 3C10.672 3 10 2.32804 10 1.49982C10 0.671962 10.672 0 11.5002 3.28104e-16Z" id="Shape" fill="#000000" fill-rule="evenodd" stroke="none" />
</svg>