<?xml version="1.0" encoding="utf-8"?>
<svg width="27px" height="26px" viewbox="0 0 27 26" version="1.1" xmlns:xlink="http://www.w3.org/1999/xlink" xmlns="http://www.w3.org/2000/svg">
  <path d="M12.499 0L13.501 0Q13.8078 0 14.1143 0.0150556Q14.4208 0.0301112 14.7261 0.0601861Q15.0315 0.090261 15.335 0.135283Q15.6385 0.180305 15.9394 0.240165Q16.2404 0.300025 16.538 0.374579Q16.8356 0.449134 17.1293 0.538203Q17.4229 0.627272 17.7118 0.730641Q18.0007 0.83401 18.2842 0.95143Q18.5676 1.06885 18.845 1.20004Q19.1224 1.33123 19.393 1.47587Q19.6636 1.62051 19.9268 1.77825Q20.1899 1.93599 20.4451 2.10646Q20.7002 2.27693 20.9466 2.45971Q21.1931 2.64249 21.4303 2.83714Q21.6675 3.0318 21.8948 3.23785Q22.1222 3.44391 22.3391 3.66087Q22.5561 3.87784 22.7621 4.10518Q22.9682 4.33253 23.1629 4.56972Q23.3575 4.8069 23.5403 5.05335Q23.7231 5.2998 23.8935 5.55493Q24.064 5.81005 24.2217 6.07323Q24.3795 6.33641 24.5241 6.60701Q24.6688 6.87761 24.8 7.15499Q24.9311 7.43236 25.0486 7.71584Q25.166 7.99932 25.2694 8.28821Q25.3727 8.57711 25.4618 8.87073Q25.5509 9.16435 25.6254 9.46199Q25.7 9.75963 25.7598 10.0606Q25.8197 10.3615 25.8647 10.665Q25.9097 10.9685 25.9398 11.2739Q25.9699 11.5792 25.9849 11.8857Q26 12.1922 26 12.499L26 12.501Q26 12.8078 25.9849 13.1143Q25.9699 13.4208 25.9398 13.7261Q25.9097 14.0315 25.8647 14.335Q25.8197 14.6385 25.7598 14.9394Q25.7 15.2404 25.6254 15.538Q25.5509 15.8356 25.4618 16.1293Q25.3727 16.4229 25.2694 16.7118Q25.166 17.0007 25.0486 17.2842Q24.9311 17.5676 24.8 17.845Q24.6688 18.1224 24.5241 18.393Q24.3795 18.6636 24.2217 18.9268Q24.064 19.1899 23.8935 19.4451Q23.7231 19.7002 23.5403 19.9466Q23.3575 20.1931 23.1629 20.4303Q22.9682 20.6675 22.7621 20.8948Q22.5561 21.1222 22.3391 21.3391Q22.1222 21.5561 21.8948 21.7621Q21.6675 21.9682 21.4303 22.1629Q21.1931 22.3575 20.9466 22.5403Q20.7002 22.7231 20.4451 22.8935Q20.1899 23.064 19.9268 23.2217Q19.6636 23.3795 19.393 23.5241Q19.1224 23.6688 18.845 23.8Q18.5676 23.9311 18.2842 24.0486Q18.0007 24.166 17.7118 24.2694Q17.4229 24.3727 17.1293 24.4618Q16.8356 24.5509 16.538 24.6254Q16.2404 24.7 15.9394 24.7598Q15.6385 24.8197 15.335 24.8647Q15.0315 24.9097 14.7261 24.9398Q14.4208 24.9699 14.1143 24.9849Q13.8078 25 13.501 25L12.499 25Q12.1922 25 11.8857 24.9849Q11.5792 24.9699 11.2739 24.9398Q10.9685 24.9097 10.665 24.8647Q10.3615 24.8197 10.0606 24.7598Q9.75963 24.7 9.46199 24.6254Q9.16435 24.5509 8.87073 24.4618Q8.57711 24.3727 8.28821 24.2694Q7.99932 24.166 7.71584 24.0486Q7.43236 23.9311 7.15499 23.8Q6.87761 23.6688 6.60701 23.5241Q6.33641 23.3795 6.07323 23.2217Q5.81005 23.064 5.55493 22.8935Q5.2998 22.7231 5.05335 22.5403Q4.8069 22.3575 4.56972 22.1629Q4.33253 21.9682 4.10518 21.7621Q3.87784 21.5561 3.66087 21.3391Q3.44391 21.1222 3.23785 20.8948Q3.0318 20.6675 2.83714 20.4303Q2.64249 20.1931 2.45971 19.9466Q2.27693 19.7002 2.10646 19.4451Q1.93599 19.1899 1.77825 18.9268Q1.62051 18.6636 1.47587 18.393Q1.33123 18.1224 1.20004 17.845Q1.06885 17.5676 0.95143 17.2842Q0.83401 17.0007 0.730641 16.7118Q0.627272 16.4229 0.538203 16.1293Q0.449134 15.8356 0.374579 15.538Q0.300025 15.2404 0.240165 14.9394Q0.180305 14.6385 0.135283 14.335Q0.090261 14.0315 0.0601861 13.7261Q0.0301112 13.4208 0.0150556 13.1143Q0 12.8078 0 12.501L0 12.499Q0 12.1922 0.0150556 11.8857Q0.0301112 11.5792 0.0601861 11.2739Q0.090261 10.9685 0.135283 10.665Q0.180305 10.3615 0.240165 10.0606Q0.300025 9.75963 0.374579 9.46199Q0.449134 9.16435 0.538203 8.87073Q0.627272 8.57711 0.730641 8.28821Q0.83401 7.99932 0.95143 7.71584Q1.06885 7.43236 1.20004 7.15499Q1.33123 6.87761 1.47587 6.60701Q1.62051 6.33641 1.77825 6.07323Q1.93599 5.81005 2.10646 5.55493Q2.27693 5.2998 2.45971 5.05335Q2.64249 4.8069 2.83714 4.56972Q3.0318 4.33253 3.23785 4.10518Q3.44391 3.87784 3.66087 3.66087Q3.87784 3.44391 4.10518 3.23785Q4.33253 3.0318 4.56972 2.83714Q4.8069 2.64249 5.05335 2.45971Q5.2998 2.27693 5.55493 2.10646Q5.81005 1.93599 6.07323 1.77825Q6.33641 1.62051 6.60701 1.47587Q6.87761 1.33123 7.15499 1.20004Q7.43236 1.06885 7.71584 0.95143Q7.99932 0.83401 8.28821 0.730641Q8.57711 0.627272 8.87073 0.538203Q9.16435 0.449134 9.46199 0.374579Q9.75963 0.300025 10.0606 0.240165Q10.3615 0.180305 10.665 0.135283Q10.9685 0.090261 11.2739 0.0601861Q11.5792 0.0301112 11.8857 0.0150556Q12.1922 0 12.499 0L12.499 0Z" transform="translate(0.5 0.5)" id="Rectangle-Copy-2" fill="#FD5303" fill-rule="evenodd" stroke="none" />
  <g id="!" fill="#FFFFFF" transform="translate(11.5 4.5)">
    <path d="M2.56348 4.59863L2.43359 11.6396L1.51074 11.6396L1.3877 4.59863L2.56348 4.59863ZM1.98926 14.5244Q1.6748 14.5244 1.45264 14.3057Q1.23047 14.0869 1.23047 13.7725Q1.23047 13.458 1.45264 13.2358Q1.6748 13.0137 1.98926 13.0137Q2.29688 13.0137 2.52246 13.2358Q2.74805 13.458 2.74805 13.7725Q2.74805 14.0869 2.52246 14.3057Q2.29688 14.5244 1.98926 14.5244Z" />
  </g>
</svg>