<?xml version="1.0" encoding="utf-8"?>
<svg width="16px" height="21px" viewbox="0 0 16 21" version="1.1" xmlns:xlink="http://www.w3.org/1999/xlink" xmlns="http://www.w3.org/2000/svg">
  <g id="Shape-2">
    <path d="M4.64712 5.87633L7.11539 8.30656C7.22265 8.41182 7.3444 8.45496 7.48156 8.45496C7.61842 8.45496 7.75619 8.41122 7.84681 8.30656C7.95377 8.20159 7.99938 8.08214 7.99938 7.94822C7.99938 7.8143 7.95407 7.69485 7.84681 7.58989L5.37854 5.15966C5.25648 5.04022 5.10391 4.86135 5.10391 4.63724C5.10391 4.41494 5.25648 4.22069 5.37854 4.10185C5.54591 3.93716 5.72899 3.84818 5.91177 3.84818C6.09455 3.84818 6.27794 3.93716 6.445 4.10185L8.91327 6.51729C9.1577 6.75618 9.26434 7.05449 9.26434 7.35311C9.26434 7.64991 9.1577 7.963 8.91327 8.18771L6.32294 10.7226C5.94198 11.0948 5.72838 11.5874 5.72838 12.1243L5.72838 16.0159C5.72838 16.2994 5.95677 16.5241 6.24712 16.5241C6.53624 16.5241 6.76494 16.3003 6.76494 16.0159L6.76494 12.1243C6.76494 11.8561 6.85648 11.6175 7.03957 11.4387L9.64531 8.90408C10.0873 8.47124 10.3003 7.91957 10.3003 7.35311C10.3003 6.78514 10.0873 6.23316 9.64531 5.80093L7.17642 3.38548C6.81117 3.02715 6.35377 2.8338 5.91177 2.8338C5.46977 2.8338 5.02809 3.02745 4.64712 3.38548C4.26615 3.74352 4.08307 4.17605 4.08307 4.63724C4.08307 5.08576 4.28095 5.50352 4.64712 5.87633ZM9.88912 9.79751C9.75257 9.79751 9.63021 9.84215 9.52356 9.94742C9.43202 10.0509 9.3713 10.17 9.3713 10.3058C9.3713 10.4397 9.43202 10.5591 9.52356 10.6629L10.2242 11.3485C10.6051 11.7225 11.1078 11.9164 11.6568 11.9164L15.4806 11.9164C15.7701 11.9164 15.9997 11.6923 15.9997 11.4079C15.9997 11.1398 15.7704 10.9012 15.4806 10.9012L11.6571 10.9012C11.3825 10.9012 11.138 10.8122 10.9559 10.633L10.2553 9.94742C10.1637 9.84215 10.0269 9.79751 9.88912 9.79751ZM2.7728 3.13151C3.65648 3.13151 4.3728 2.43173 4.3728 1.56666C4.3728 0.701589 3.65648 0 2.7728 0C1.88912 0 1.1728 0.70189 1.1728 1.56666C1.1728 2.43143 1.88912 3.13151 2.7728 3.13151ZM2.7728 0.805047C3.18397 0.805047 3.51963 1.14921 3.51963 1.56666C3.51932 1.98321 3.18397 2.32676 2.7728 2.32676C2.36132 2.32676 2.02597 1.98291 2.02597 1.56666C2.02597 1.1489 2.36132 0.805047 2.7728 0.805047ZM15.4967 17.3126L0.517819 17.3126C0.227779 17.3126 0 17.5059 0 17.7898C0 18.0727 0.227779 18.2823 0.517819 18.2823L15.4967 18.2823C15.7861 18.2823 16 18.0727 16 17.7898C16 17.5059 15.7864 17.3126 15.4967 17.3126ZM15.4967 20.0303L0.517819 20.0303C0.227779 20.0303 0 20.2236 0 20.5074C0 20.7901 0.227779 21 0.517819 21L15.4967 21C15.7861 21 16 20.7904 16 20.5074C16 20.2233 15.7864 20.0303 15.4967 20.0303Z" id="Shape" fill="#000000" stroke="none" />
  </g>
</svg>