<?xml version="1.0" encoding="utf-8"?>
<svg width="11px" height="14px" viewbox="0 0 11 14" version="1.1" xmlns:xlink="http://www.w3.org/1999/xlink" xmlns="http://www.w3.org/2000/svg">
  <path d="M5 13C4.89209 13 4.78417 12.946 4.71223 12.856L1.02518 8.03047C-0.341727 6.24792 -0.341727 3.74515 1.02518 1.9626C1.97842 0.720222 3.41727 0 5 0C6.58273 0 8.02158 0.720222 8.97482 1.9626C10.3417 3.74515 10.3417 6.24792 8.97482 8.03047L5.28777 12.856C5.21583 12.946 5.10791 13 5 13ZM5.00001 0.684082C3.64805 0.684082 2.42227 1.31282 1.59307 2.40385C0.42137 3.97569 0.42137 6.17626 1.59307 7.74809L5.00001 12.3157L8.40695 7.74809C9.57865 6.17626 9.57865 3.97569 8.40695 2.40385C7.57775 1.31282 6.35197 0.684082 5.00001 0.684082Z" transform="translate(0.25 0.25)" id="Shape" fill="#000000" stroke="#000000" stroke-width="0.5" />
  <path d="M2 4C0.894118 4 0 3.10588 0 2C0 0.894118 0.894118 0 2 0C3.10588 0 4 0.894118 4 2C4 3.10588 3.10588 4 2 4ZM2.00002 0.666504C1.26156 0.666504 0.666687 1.26138 0.666687 1.99984C0.666687 2.7383 1.26156 3.33317 2.00002 3.33317C2.73848 3.33317 3.33335 2.7383 3.33335 1.99984C3.33335 1.26138 2.73848 0.666504 2.00002 0.666504Z" transform="translate(3.25 3.25)" id="Shape" fill="#000000" stroke="#000000" stroke-width="0.5" />
</svg>