<?xml version="1.0" encoding="utf-8"?>
<svg width="13px" height="13px" viewbox="0 0 13 13" version="1.1" xmlns:xlink="http://www.w3.org/1999/xlink" xmlns="http://www.w3.org/2000/svg">
  <path d="M10.4124 7.26897C10.1085 6.96516 9.70464 6.7979 9.27504 6.7979C8.84543 6.7979 8.44154 6.96516 8.13772 7.26897L7.64343 7.76313C7.41439 7.99217 7.05155 8.02106 6.78077 7.83169C6.27846 7.48032 5.80076 7.07905 5.36079 6.63908L5.36079 6.63908C4.9204 6.19856 4.51914 5.72085 4.16832 5.21924C3.97896 4.94845 4.00771 4.58561 4.23688 4.35657L4.73104 3.86228C5.35816 3.23529 5.35816 2.21492 4.73104 1.58793L3.61418 0.471071C3.3105 0.16739 2.90661 0 2.47687 0C2.04726 0 1.64337 0.16739 1.33969 0.471071L0.830471 0.980153C0.200443 1.61046 -0.0990902 2.4951 0.0291824 3.3467C0.205834 4.52009 0.642486 5.7192 1.29131 6.81338C1.75699 7.60306 2.33021 8.34036 2.99493 9.00508C3.65952 9.66967 4.39681 10.2427 5.18607 10.7083C6.28095 11.3575 7.47991 11.794 8.65316 11.9707C8.78323 11.9903 8.91399 12 9.04462 12C9.76919 12 10.486 11.7034 11.0198 11.1693L11.5289 10.6602C11.8327 10.3565 12 9.95261 12 9.52287C12 9.0934 11.8327 8.68951 11.5289 8.38556L10.4124 7.26897ZM11.1382 10.2696L10.6289 10.7787C10.1225 11.2855 9.41476 11.5267 8.73567 11.4244C7.63208 11.2582 6.50223 10.8462 5.46748 10.2327C4.71789 9.79056 4.0175 9.24609 3.38581 8.61454C2.75399 7.98271 2.20952 7.28233 1.7672 6.53232C1.15404 5.4984 0.742127 4.36841 0.575843 3.26468C0.473695 2.58586 0.715035 1.87801 1.22149 1.37142L1.73057 0.862333C2.14221 0.450837 2.81163 0.450837 3.22312 0.862333L4.33998 1.97919C4.75147 2.39069 4.75147 3.06025 4.33998 3.47174L3.84583 3.96604C3.42673 4.385 3.37185 5.04571 3.7152 5.53655C4.08454 6.06457 4.50668 6.56729 4.96973 7.03048L5.16532 6.83503L4.96987 7.03048C5.43251 7.49326 5.93523 7.91526 6.46394 8.28515C6.95505 8.62864 7.61563 8.57363 8.03445 8.15453L8.52874 7.66037C8.72806 7.46105 8.99318 7.3513 9.27502 7.3513C9.55686 7.3513 9.82197 7.46105 10.0213 7.66037L11.1382 8.77709C11.3375 8.97641 11.4472 9.24153 11.4472 9.52337C11.4472 9.80521 11.3375 10.0702 11.1382 10.2696Z" transform="translate(0.25 0.25)" id="Shape" fill="#000000" stroke="#000000" stroke-width="0.5" />
</svg>