<?xml version="1.0" encoding="utf-8"?>
<svg width="19px" height="19px" viewbox="0 0 19 19" version="1.1" xmlns:xlink="http://www.w3.org/1999/xlink" xmlns="http://www.w3.org/2000/svg">
  <g id="Group-4">
    <path d="M0 2.5C0 1.11929 1.11929 0 2.5 0C3.88071 0 5 1.11929 5 2.5C5 3.88071 3.88071 5 2.5 5C1.11929 5 0 3.88071 0 2.5Z" transform="translate(12 2)" id="Path" fill="#000000" stroke="none" />
    <path d="M19 0.5C19 0.776167 18.737 1 18.3864 1C16.6811 1 16.0186 2 13.9432 2C11.8632 2 11.1914 1 9.5 1C7.80798 1 7.13727 2 5.05679 2C2.98287 2 2.31766 1 0.613586 1C0.262996 1 0 0.776167 0 0.5C0 0.223833 0.262996 0 0.613586 0C2.70549 0 3.37536 1 5.05679 1C6.74796 1 7.41825 0 9.5 0C11.5803 0 12.2533 1 13.9432 1C15.6333 1 16.286 0 18.3864 0C18.737 0 19 0.223833 19 0.5Z" transform="translate(0 17)" id="Path" fill="#000000" stroke="none" />
    <path d="M0 0.5C0 0.223833 0.262996 0 0.613586 0C2.70549 0 3.37536 1 5.05679 1C6.74796 1 7.41825 0 9.5 0C11.5803 0 12.2533 1 13.9432 1C15.6333 1 16.286 0 18.3864 0C18.737 0 19 0.223833 19 0.5C19 0.776167 18.737 1 18.3864 1C16.6811 1 16.0186 2 13.9432 2C11.8632 2 11.1914 1 9.5 1C7.80798 1 7.13727 2 5.05679 2C2.98287 2 2.31766 1 0.613586 1C0.262996 1 0 0.776167 0 0.5Z" transform="translate(0 12)" id="Path" fill="#000000" stroke="none" />
    <path d="M3.1335 6.94224C2.71544 6.04599 2.49231 5.04202 2.50983 4.01188C2.53591 2.46776 3.08904 1.03355 3.99013 0.175897C4.2481 -0.070299 4.6544 -0.0565609 4.89613 0.207734C5.13786 0.471593 5.12375 0.885481 4.86492 1.13211C4.21347 1.75273 3.8123 2.8376 3.792 4.03412C3.77832 4.85732 3.94289 6.43023 5.20155 7.71463L6.75558 9.30018C7.06741 9.61812 7.0828 10.1308 6.79063 10.467L6.32705 11C6.08895 10.9167 5.84915 10.7976 5.56831 10.655C4.82987 10.2799 3.91105 9.81285 2.50406 9.81285C1.42985 9.81285 0.641618 10.0848 0 10.3805L3.1335 6.94224Z" transform="translate(7 0)" id="Path" fill="#000000" stroke="none" />
  </g>
</svg>